<svg xmlns="http://www.w3.org/2000/svg" viewBox="0 0 918 918"><defs><style>.cls-1{fill:teal;}.cls-2{fill:none;stroke:#fff;stroke-miterlimit:10;stroke-width:22px;}</style></defs><title>logooooo</title><g id="Layer_2" data-name="Layer 2"><g id="Layer_1-2" data-name="Layer 1"><g id="Layer_2-2" data-name="Layer 2"><g id="Layer_1-2-2" data-name="Layer 1-2"><path class="cls-1" d="M544.44,408.33A28.41,28.41,0,0,1,516,379.93V210a28.43,28.43,0,1,1,56.85-1.07c0,.36,0,.71,0,1.07V379.91a28.41,28.41,0,0,1-28.4,28.42Z"/><path class="cls-1" d="M629.4,326H459.47a28.43,28.43,0,0,1,0-56.85H629.4A28.43,28.43,0,0,1,630.47,326Z"/><path class="cls-1" d="M622.49,515.08c.36-.42,18.88-25.31,42.83-43.89a24.11,24.11,0,0,0-11.3-2.61c-5.31,0-11.24,1.42-17.62,4.22-12,5.26-20.79,15.63-31.92,28.78-6.31,7.45-13.46,15.9-22.24,24.54-11.69,11.51-29,21.92-51.49,30.94-7.14,2.88-14.74,5.59-22.73,8.12l.46.05c7.48.87,15,1.65,22.42,2.35l1.07.1a212.54,212.54,0,0,0,24.17-9.24C572.53,550.57,600.2,531.94,622.49,515.08Z"/><path class="cls-1" d="M693.92,503.65c16.18-13.32,34-28,52.46-35.73-10.86-7-22.66-7.82-37.65-2.9-14.24,4.67-22.91,11.65-61.53,43.84-23.32,19.44-64.59,48.44-86.54,59q-1.8.87-3.9,1.77l4,.25,3.18.18c2.82.15,5.54.28,8.11.38,2.85.1,5.75.11,8.72,0,1,0,2-.1,2.93-.14,2-.08,4.06-.15,6.15-.31,1.19-.09,2.42-.24,3.63-.36,1.93-.18,3.85-.34,5.83-.58,1.31-.16,2.67-.39,4-.58,1.77-.25,3.53-.49,5.34-.79,19.55-12.31,60.31-44,74.58-55.35C686.67,509.62,690.24,506.68,693.92,503.65Z"/><path class="cls-1" d="M700.55,511.71c-3.73,3.07-7.35,6-10.82,8.81-.4.3-29.39,23.34-54,41.17l2.73-.74,1.72-.49c4.54-1.29,9-2.67,13.32-4.08l1-.32c1.88-.62,3.74-1.24,5.58-1.88l1.11-.38c1.95-.68,3.88-1.36,5.77-2l.34-.12c4.21-1.53,8.24-3.07,12.06-4.57l.36-.15c1.77-.7,3.49-1.38,5.16-2.06l.46-.19c5.29-2.16,10.06-4.19,14.16-6l.55-.24,3.4-1.5.43-.18,3.25-1.45c9.66-4.29,20.39-12.43,32.8-21.86,14.22-10.81,30.12-22.88,48.3-32-5.15-5.47-12.83-8.26-23-8.26C743.79,476.12,720.82,495,700.55,511.71Z"/><path class="cls-1" d="M187.77,701.87h0q-3.75.66-7.62,1.31c1.15-1.92,2.4-3.84,3.74-5.71.65.73,1.29,1.47,1.94,2.21Z"/><path class="cls-1" d="M729.72,707.52v0c-.52-1.09-1.09-2.12-1.71-3.19l-.65.71c-1.69,1.84-3.39,3.66-5.13,5.48-.24.26-.49.51-.74.77h0l0,0q4.11-1.8,8.28-3.77Zm-543.91-7.84c-.65-.74-1.29-1.48-1.94-2.21h0c-1.34,1.87-2.59,3.79-3.74,5.71h0q3.87-.64,7.62-1.31Z"/><path class="cls-1" d="M183.85,697.47c-1.34,1.87-2.59,3.79-3.74,5.71h0c1.15-1.92,2.4-3.84,3.74-5.71Zm545.9,10v0h0c-2.76,1.32-5.51,2.58-8.23,3.77h0l0,0q4.11-1.8,8.28-3.77v0Z"/><path class="cls-1" d="M187.77,701.87h0q-3.75.66-7.62,1.31c1.15-1.92,2.4-3.84,3.74-5.71.65.73,1.29,1.47,1.94,2.21Z"/><path class="cls-1" d="M729.75,707.51h0q-4.15,2-8.24,3.75c.25-.26.5-.51.74-.77,1.74-1.82,3.44-3.64,5.13-5.48l.65-.71,0,0,.45.82c.23.4.45.8.65,1.2s.42.79.62,1.19Z"/><path class="cls-1" d="M729.75,707.51h0q-4.15,2-8.24,3.75c.25-.26.5-.51.74-.77,1.74-1.82,3.44-3.64,5.13-5.48l.65-.71,0,0,.45.82c.23.4.45.8.65,1.2s.42.79.62,1.19Z"/></g></g><path class="cls-1" d="M783.56,134.44C696.86,47.75,581.6,0,459,0S221.14,47.75,134.44,134.44,0,336.4,0,459,47.75,696.86,134.44,783.56,336.4,918,459,918s237.86-47.75,324.56-134.44S918,581.6,918,459,870.25,221.14,783.56,134.44ZM187.75,701.87q-3.75.66-7.62,1.31h0c1.15-1.92,2.4-3.84,3.74-5.71h0c.65.73,1.29,1.47,1.94,2.21l2,2.19Zm542,5.64h0v0q-4.17,2-8.28,3.77l0,0h0c.25-.26.5-.51.74-.77,1.74-1.82,3.44-3.64,5.13-5.48l.65-.71,0,0,.45.82c.23.4.45.8.65,1.2s.43.78.63,1.18h0ZM807.9,485.89a19.68,19.68,0,0,0-8,1.66c-20.23,8.78-38,22.28-53.69,34.22-12.92,9.81-24.08,18.29-34.86,23.07-17.4,7.73-58.14,25.81-100,33a207.26,207.26,0,0,1-34,3.09c-1.89,0-3.81,0-5.68-.1-11.23-.43-24.89-1.35-39.57-2.68-16.9-1.54-34.48-3.6-50.84-5.94-67.28-9.66-73.7-18.48-75.8-21.39-3.08-4.21-2.15-7.54-1.33-9.16,2.53-5,9.48-5.66,15.92-5.66,14.82,0,37.54,4.53,38.49,4.72l.57.14c.18,0,19.2,6,39.3,6,10.39,0,19.21-1.58,26.2-4.7a36.44,36.44,0,0,0,5-2.69c6.13-3.94,13.12-10.11,11.54-17-1.16-5.07-6.42-8.71-8.42-9-3.46-.44-14.7-3-34.24-7.56-21.58-5-48.43-11.2-65.61-14.42-5.58-1.05-11.56-2.36-17.85-3.72-20-4.36-42.64-9.31-67.19-9.31a159.4,159.4,0,0,0-32.46,3.22l-6.57,1.37c-43.92,9-85.42,17.54-117.79,73-4.75,8.19-8.44,16.8-12.31,25.92-6.36,14.9-12.93,30.34-24.76,44a160.24,160.24,0,0,1-12,12.17A361.71,361.71,0,0,1,94.75,459C94.75,258.16,258.16,94.75,459,94.75S823.25,258.16,823.25,459q0,15.66-1.32,31A29.44,29.44,0,0,0,807.9,485.89Z"/><circle class="cls-2" cx="459" cy="459" r="364.25"/></g></g></svg>